# xmcd
#
# Track frame offsets:
#	150
#	15555
#	34581
#	49409
#	66075
#	82164
#	98962
#	114723
#	130071
#	143907
#	162937
#	178669
#
# Disc length: 2600 seconds
#
# Revision: 9
# Processed by: cddbd v1.5.2PL0 Copyright (c) Steve Scherf et al.
# Submitted via: audiograbber 1.83.01
#
DISCID=a50a260c
DTITLE=Stacie Collins - Stacie Collins
DYEAR=2000
DGENRE=Country
TTITLE0=Big Freight Train
TTITLE1=All She Needed
TTITLE2=Set Me Free
TTITLE3=I'm Tryin'
TTITLE4=Time To Fly
TTITLE5=When The Mornin' Comes
TTITLE6=Once Upon A Time
TTITLE7=Bandelion
TTITLE8=Charlie
TTITLE9=Blame It On Me
TTITLE10=Sweet Dream
TTITLE11=All My Dreams Come True
EXTD=
EXTT0=
EXTT1=
EXTT2=
EXTT3=
EXTT4=
EXTT5=
EXTT6=
EXTT7=
EXTT8=
EXTT9=
EXTT10=
EXTT11=
PLAYORDER=
